<svg xmlns="http://www.w3.org/2000/svg" viewBox="0 0 100 100">
  <!-- Stems -->
  <path d="M45 95 L48 55" stroke="#5a7c47" stroke-width="3" fill="none"/>
  <path d="M50 95 L50 50" stroke="#5a7c47" stroke-width="3" fill="none"/>
  <path d="M55 95 L52 55" stroke="#5a7c47" stroke-width="3" fill="none"/>
  <path d="M48 95 L42 60" stroke="#6b8c4f" stroke-width="2" fill="none"/>
  <path d="M52 95 L58 60" stroke="#6b8c4f" stroke-width="2" fill="none"/>
  
  <!-- Leaves -->
  <ellipse cx="30" cy="50" rx="8" ry="18" fill="#4a7c3f" transform="rotate(-30 30 50)"/>
  <ellipse cx="70" cy="50" rx="8" ry="18" fill="#4a7c3f" transform="rotate(30 70 50)"/>
  <ellipse cx="35" cy="40" rx="6" ry="14" fill="#5a8c4f" transform="rotate(-20 35 40)"/>
  <ellipse cx="65" cy="40" rx="6" ry="14" fill="#5a8c4f" transform="rotate(20 65 40)"/>
  <ellipse cx="40" cy="55" rx="5" ry="12" fill="#6a9c5f" transform="rotate(-15 40 55)"/>
  <ellipse cx="60" cy="55" rx="5" ry="12" fill="#6a9c5f" transform="rotate(15 60 55)"/>
  
  <!-- Yellow flower -->
  <circle cx="25" cy="35" r="10" fill="#f5c842"/>
  <ellipse cx="25" cy="35" rx="4" ry="5" fill="#c44"/>
  
  <!-- Blue flowers -->
  <ellipse cx="35" cy="15" rx="5" ry="8" fill="#5b7fc7"/>
  <ellipse cx="45" cy="12" rx="5" ry="8" fill="#5b7fc7"/>
  
  <!-- Pink/white flowers -->
  <circle cx="55" cy="18" r="8" fill="#f5e6e0"/>
  <path d="M52 16 Q55 20 58 16" stroke="#c77" stroke-width="1.5" fill="none"/>
  <path d="M53 14 L53 18" stroke="#c77" stroke-width="1" fill="none"/>
  <path d="M55 13 L55 17" stroke="#c77" stroke-width="1" fill="none"/>
  <path d="M57 14 L57 18" stroke="#c77" stroke-width="1" fill="none"/>
  
  <circle cx="60" cy="35" r="7" fill="#f5e6e0"/>
  <path d="M57 33 Q60 37 63 33" stroke="#c77" stroke-width="1.5" fill="none"/>
  
  <!-- Pink berries -->
  <circle cx="68" cy="22" r="4" fill="#e8a0a0"/>
  <circle cx="72" cy="30" r="3" fill="#e8a0a0"/>
  <circle cx="30" cy="25" r="3" fill="#e8a0a0"/>
  <circle cx="75" cy="45" r="3" fill="#e8a0a0"/>
  <circle cx="25" cy="50" r="2.5" fill="#dca080"/>
  
  <!-- Hand -->
  <path d="M35 75 Q30 85 35 95 L65 95 Q70 85 65 75 Q50 70 35 75" fill="#e8c4a8"/>
  <path d="M30 80 L25 95 L35 95 Q32 88 35 80" fill="#f5dfc4"/>
</svg>

