<svg xmlns="http://www.w3.org/2000/svg" xmlns:xlink="http://www.w3.org/1999/xlink" width="500" zoomAndPan="magnify" viewBox="0 0 375 374.999991" height="500" preserveAspectRatio="xMidYMid meet" version="1.0"><defs><linearGradient x1="0" gradientTransform="matrix(0.75, 0, 0, 0.75, 0.0000045, 0)" y1="250" x2="499.999979" gradientUnits="userSpaceOnUse" y2="250" id="d5e1f3df72"><stop stop-opacity="1" stop-color="rgb(100%, 87.059021%, 34.899902%)" offset="0"/><stop stop-opacity="1" stop-color="rgb(100%, 86.941528%, 34.881592%)" offset="0.0078125"/><stop stop-opacity="1" stop-color="rgb(100%, 86.705017%, 34.843445%)" offset="0.015625"/><stop stop-opacity="1" stop-color="rgb(100%, 86.468506%, 34.806824%)" offset="0.0234375"/><stop stop-opacity="1" stop-color="rgb(100%, 86.233521%, 34.770203%)" offset="0.03125"/><stop stop-opacity="1" stop-color="rgb(100%, 85.997009%, 34.733582%)" offset="0.0390625"/><stop stop-opacity="1" stop-color="rgb(100%, 85.760498%, 34.69696%)" offset="0.046875"/><stop stop-opacity="1" stop-color="rgb(100%, 85.525513%, 34.660339%)" offset="0.0546875"/><stop stop-opacity="1" stop-color="rgb(100%, 85.289001%, 34.623718%)" offset="0.0625"/><stop stop-opacity="1" stop-color="rgb(100%, 85.054016%, 34.587097%)" offset="0.0703125"/><stop stop-opacity="1" stop-color="rgb(100%, 84.817505%, 34.550476%)" offset="0.078125"/><stop stop-opacity="1" stop-color="rgb(100%, 84.580994%, 34.513855%)" offset="0.0859375"/><stop stop-opacity="1" stop-color="rgb(100%, 84.346008%, 34.477234%)" offset="0.09375"/><stop stop-opacity="1" stop-color="rgb(100%, 84.109497%, 34.440613%)" offset="0.101562"/><stop stop-opacity="1" stop-color="rgb(100%, 83.872986%, 34.403992%)" offset="0.109375"/><stop stop-opacity="1" stop-color="rgb(100%, 83.638%, 34.367371%)" offset="0.117188"/><stop stop-opacity="1" stop-color="rgb(100%, 83.401489%, 34.33075%)" offset="0.125"/><stop stop-opacity="1" stop-color="rgb(100%, 83.166504%, 34.292603%)" offset="0.132812"/><stop stop-opacity="1" stop-color="rgb(100%, 82.929993%, 34.255981%)" offset="0.140625"/><stop stop-opacity="1" stop-color="rgb(100%, 82.693481%, 34.21936%)" offset="0.148437"/><stop stop-opacity="1" stop-color="rgb(100%, 82.458496%, 34.182739%)" offset="0.15625"/><stop stop-opacity="1" stop-color="rgb(100%, 82.221985%, 34.146118%)" offset="0.164062"/><stop stop-opacity="1" stop-color="rgb(100%, 81.985474%, 34.109497%)" offset="0.171875"/><stop stop-opacity="1" stop-color="rgb(100%, 81.750488%, 34.072876%)" offset="0.179687"/><stop stop-opacity="1" stop-color="rgb(100%, 81.513977%, 34.036255%)" offset="0.1875"/><stop stop-opacity="1" stop-color="rgb(100%, 81.278992%, 33.999634%)" offset="0.195312"/><stop stop-opacity="1" stop-color="rgb(100%, 81.04248%, 33.963013%)" offset="0.203125"/><stop stop-opacity="1" stop-color="rgb(100%, 80.805969%, 33.926392%)" offset="0.210938"/><stop stop-opacity="1" stop-color="rgb(100%, 80.570984%, 33.889771%)" offset="0.21875"/><stop stop-opacity="1" stop-color="rgb(100%, 80.334473%, 33.853149%)" offset="0.226562"/><stop stop-opacity="1" stop-color="rgb(100%, 80.097961%, 33.816528%)" offset="0.234375"/><stop stop-opacity="1" stop-color="rgb(100%, 79.862976%, 33.779907%)" offset="0.242188"/><stop stop-opacity="1" stop-color="rgb(100%, 79.626465%, 33.743286%)" offset="0.25"/><stop stop-opacity="1" stop-color="rgb(100%, 79.391479%, 33.705139%)" offset="0.257812"/><stop stop-opacity="1" stop-color="rgb(100%, 79.154968%, 33.668518%)" offset="0.265625"/><stop stop-opacity="1" stop-color="rgb(100%, 78.918457%, 33.631897%)" offset="0.273437"/><stop stop-opacity="1" stop-color="rgb(100%, 78.683472%, 33.595276%)" offset="0.28125"/><stop stop-opacity="1" stop-color="rgb(100%, 78.44696%, 33.558655%)" offset="0.289062"/><stop stop-opacity="1" stop-color="rgb(100%, 78.210449%, 33.522034%)" offset="0.296875"/><stop stop-opacity="1" stop-color="rgb(100%, 77.975464%, 33.485413%)" offset="0.304687"/><stop stop-opacity="1" stop-color="rgb(100%, 77.738953%, 33.448792%)" offset="0.3125"/><stop stop-opacity="1" stop-color="rgb(100%, 77.503967%, 33.41217%)" offset="0.320312"/><stop stop-opacity="1" stop-color="rgb(100%, 77.267456%, 33.375549%)" offset="0.328125"/><stop stop-opacity="1" stop-color="rgb(100%, 77.030945%, 33.338928%)" offset="0.335937"/><stop stop-opacity="1" stop-color="rgb(100%, 76.795959%, 33.302307%)" offset="0.34375"/><stop stop-opacity="1" stop-color="rgb(100%, 76.559448%, 33.265686%)" offset="0.351562"/><stop stop-opacity="1" stop-color="rgb(100%, 76.322937%, 33.229065%)" offset="0.359375"/><stop stop-opacity="1" stop-color="rgb(100%, 76.087952%, 33.192444%)" offset="0.367187"/><stop stop-opacity="1" stop-color="rgb(100%, 75.85144%, 33.154297%)" offset="0.375"/><stop stop-opacity="1" stop-color="rgb(100%, 75.616455%, 33.117676%)" offset="0.382812"/><stop stop-opacity="1" stop-color="rgb(100%, 75.379944%, 33.081055%)" offset="0.390625"/><stop stop-opacity="1" stop-color="rgb(100%, 75.143433%, 33.044434%)" offset="0.398438"/><stop stop-opacity="1" stop-color="rgb(100%, 74.908447%, 33.007812%)" offset="0.40625"/><stop stop-opacity="1" stop-color="rgb(100%, 74.671936%, 32.971191%)" offset="0.414062"/><stop stop-opacity="1" stop-color="rgb(100%, 74.435425%, 32.93457%)" offset="0.421875"/><stop stop-opacity="1" stop-color="rgb(100%, 74.200439%, 32.897949%)" offset="0.429688"/><stop stop-opacity="1" stop-color="rgb(100%, 73.963928%, 32.861328%)" offset="0.4375"/><stop stop-opacity="1" stop-color="rgb(100%, 73.728943%, 32.824707%)" offset="0.445312"/><stop stop-opacity="1" stop-color="rgb(100%, 73.492432%, 32.788086%)" offset="0.453125"/><stop stop-opacity="1" stop-color="rgb(100%, 73.25592%, 32.751465%)" offset="0.460938"/><stop stop-opacity="1" stop-color="rgb(100%, 73.020935%, 32.714844%)" offset="0.46875"/><stop stop-opacity="1" stop-color="rgb(100%, 72.784424%, 32.678223%)" offset="0.476562"/><stop stop-opacity="1" stop-color="rgb(100%, 72.547913%, 32.641602%)" offset="0.484375"/><stop stop-opacity="1" stop-color="rgb(100%, 72.312927%, 32.60498%)" offset="0.492188"/><stop stop-opacity="1" stop-color="rgb(100%, 72.076416%, 32.566833%)" offset="0.5"/><stop stop-opacity="1" stop-color="rgb(100%, 71.841431%, 32.530212%)" offset="0.507812"/><stop stop-opacity="1" stop-color="rgb(100%, 71.604919%, 32.493591%)" offset="0.515625"/><stop stop-opacity="1" stop-color="rgb(100%, 71.368408%, 32.45697%)" offset="0.523437"/><stop stop-opacity="1" stop-color="rgb(100%, 71.133423%, 32.420349%)" offset="0.53125"/><stop stop-opacity="1" stop-color="rgb(100%, 70.896912%, 32.383728%)" offset="0.539062"/><stop stop-opacity="1" stop-color="rgb(100%, 70.6604%, 32.347107%)" offset="0.546875"/><stop stop-opacity="1" stop-color="rgb(100%, 70.425415%, 32.310486%)" offset="0.554687"/><stop stop-opacity="1" stop-color="rgb(100%, 70.188904%, 32.273865%)" offset="0.5625"/><stop stop-opacity="1" stop-color="rgb(100%, 69.953918%, 32.237244%)" offset="0.570312"/><stop stop-opacity="1" stop-color="rgb(100%, 69.717407%, 32.200623%)" offset="0.578125"/><stop stop-opacity="1" stop-color="rgb(100%, 69.480896%, 32.164001%)" offset="0.585937"/><stop stop-opacity="1" stop-color="rgb(100%, 69.245911%, 32.12738%)" offset="0.59375"/><stop stop-opacity="1" stop-color="rgb(100%, 69.009399%, 32.090759%)" offset="0.601562"/><stop stop-opacity="1" stop-color="rgb(100%, 68.772888%, 32.054138%)" offset="0.609375"/><stop stop-opacity="1" stop-color="rgb(100%, 68.537903%, 32.017517%)" offset="0.617187"/><stop stop-opacity="1" stop-color="rgb(100%, 68.301392%, 31.97937%)" offset="0.625"/><stop stop-opacity="1" stop-color="rgb(100%, 68.066406%, 31.942749%)" offset="0.632812"/><stop stop-opacity="1" stop-color="rgb(100%, 67.829895%, 31.906128%)" offset="0.640625"/><stop stop-opacity="1" stop-color="rgb(100%, 67.593384%, 31.869507%)" offset="0.648437"/><stop stop-opacity="1" stop-color="rgb(100%, 67.358398%, 31.832886%)" offset="0.65625"/><stop stop-opacity="1" stop-color="rgb(100%, 67.121887%, 31.796265%)" offset="0.664062"/><stop stop-opacity="1" stop-color="rgb(100%, 66.885376%, 31.759644%)" offset="0.671875"/><stop stop-opacity="1" stop-color="rgb(100%, 66.650391%, 31.723022%)" offset="0.679687"/><stop stop-opacity="1" stop-color="rgb(100%, 66.413879%, 31.686401%)" offset="0.6875"/><stop stop-opacity="1" stop-color="rgb(100%, 66.178894%, 31.64978%)" offset="0.695312"/><stop stop-opacity="1" stop-color="rgb(100%, 65.942383%, 31.613159%)" offset="0.703125"/><stop stop-opacity="1" stop-color="rgb(100%, 65.705872%, 31.576538%)" offset="0.710937"/><stop stop-opacity="1" stop-color="rgb(100%, 65.470886%, 31.539917%)" offset="0.71875"/><stop stop-opacity="1" stop-color="rgb(100%, 65.234375%, 31.503296%)" offset="0.726562"/><stop stop-opacity="1" stop-color="rgb(100%, 64.997864%, 31.466675%)" offset="0.734375"/><stop stop-opacity="1" stop-color="rgb(100%, 64.762878%, 31.428528%)" offset="0.742187"/><stop stop-opacity="1" stop-color="rgb(100%, 64.526367%, 31.391907%)" offset="0.75"/><stop stop-opacity="1" stop-color="rgb(100%, 64.291382%, 31.355286%)" offset="0.757812"/><stop stop-opacity="1" stop-color="rgb(100%, 64.054871%, 31.318665%)" offset="0.765625"/><stop stop-opacity="1" stop-color="rgb(100%, 63.818359%, 31.282043%)" offset="0.773438"/><stop stop-opacity="1" stop-color="rgb(100%, 63.583374%, 31.245422%)" offset="0.78125"/><stop stop-opacity="1" stop-color="rgb(100%, 63.346863%, 31.208801%)" offset="0.789062"/><stop stop-opacity="1" stop-color="rgb(100%, 63.110352%, 31.17218%)" offset="0.796875"/><stop stop-opacity="1" stop-color="rgb(100%, 62.875366%, 31.135559%)" offset="0.804688"/><stop stop-opacity="1" stop-color="rgb(100%, 62.638855%, 31.098938%)" offset="0.8125"/><stop stop-opacity="1" stop-color="rgb(100%, 62.40387%, 31.062317%)" offset="0.820312"/><stop stop-opacity="1" stop-color="rgb(100%, 62.167358%, 31.025696%)" offset="0.828125"/><stop stop-opacity="1" stop-color="rgb(100%, 61.930847%, 30.989075%)" offset="0.835938"/><stop stop-opacity="1" stop-color="rgb(100%, 61.695862%, 30.952454%)" offset="0.84375"/><stop stop-opacity="1" stop-color="rgb(100%, 61.459351%, 30.915833%)" offset="0.851562"/><stop stop-opacity="1" stop-color="rgb(100%, 61.224365%, 30.879211%)" offset="0.859375"/><stop stop-opacity="1" stop-color="rgb(100%, 60.987854%, 30.841064%)" offset="0.867188"/><stop stop-opacity="1" stop-color="rgb(100%, 60.751343%, 30.804443%)" offset="0.875"/><stop stop-opacity="1" stop-color="rgb(100%, 60.516357%, 30.767822%)" offset="0.882812"/><stop stop-opacity="1" stop-color="rgb(100%, 60.279846%, 30.731201%)" offset="0.890625"/><stop stop-opacity="1" stop-color="rgb(100%, 60.043335%, 30.69458%)" offset="0.898438"/><stop stop-opacity="1" stop-color="rgb(100%, 59.80835%, 30.657959%)" offset="0.90625"/><stop stop-opacity="1" stop-color="rgb(100%, 59.571838%, 30.621338%)" offset="0.914062"/><stop stop-opacity="1" stop-color="rgb(100%, 59.336853%, 30.584717%)" offset="0.921875"/><stop stop-opacity="1" stop-color="rgb(100%, 59.100342%, 30.548096%)" offset="0.929688"/><stop stop-opacity="1" stop-color="rgb(100%, 58.863831%, 30.511475%)" offset="0.9375"/><stop stop-opacity="1" stop-color="rgb(100%, 58.628845%, 30.474854%)" offset="0.945312"/><stop stop-opacity="1" stop-color="rgb(100%, 58.392334%, 30.438232%)" offset="0.953125"/><stop stop-opacity="1" stop-color="rgb(100%, 58.155823%, 30.401611%)" offset="0.960938"/><stop stop-opacity="1" stop-color="rgb(100%, 57.920837%, 30.36499%)" offset="0.96875"/><stop stop-opacity="1" stop-color="rgb(100%, 57.684326%, 30.328369%)" offset="0.976562"/><stop stop-opacity="1" stop-color="rgb(100%, 57.449341%, 30.291748%)" offset="0.984375"/><stop stop-opacity="1" stop-color="rgb(100%, 57.21283%, 30.253601%)" offset="0.992188"/><stop stop-opacity="1" stop-color="rgb(100%, 56.976318%, 30.21698%)" offset="1"/></linearGradient><clipPath id="3ea9e58317"><path d="M 23 23 L 351 23 L 351 350 L 23 350 Z M 23 23 " clip-rule="nonzero"/></clipPath><clipPath id="dd753728b6"><path d="M 21.800781 97.359375 L 21.800781 277.640625 C 21.800781 319.0625 55.382812 352.640625 96.800781 352.640625 L 278.199219 352.640625 C 319.617188 352.640625 353.199219 319.0625 353.199219 277.640625 L 353.199219 97.359375 C 353.199219 55.9375 319.617188 22.359375 278.199219 22.359375 L 96.800781 22.359375 C 55.382812 22.359375 21.800781 55.9375 21.800781 97.359375 Z M 21.800781 97.359375 " clip-rule="nonzero"/></clipPath></defs><rect x="-37.5" width="450" fill="#ffffff" y="-37.499999" height="449.999989" fill-opacity="1"/><rect x="-37.5" fill="url(#d5e1f3df72)" width="450" y="-37.499999" height="449.999989"/><g clip-path="url(#3ea9e58317)"><g clip-path="url(#dd753728b6)"><path fill="#322c4d" d="M 187.148438 23.273438 C 96.929688 23.273438 23.804688 96.402344 23.804688 186.617188 C 23.804688 276.835938 96.929688 349.960938 187.148438 349.960938 C 277.363281 349.960938 350.492188 276.871094 350.492188 186.617188 C 350.492188 96.363281 277.402344 23.273438 187.148438 23.273438 Z M 287.320312 264.96875 C 281.5625 272.101562 275.101562 278.527344 267.9375 284.25 C 260.773438 289.972656 253.078125 294.851562 244.851562 298.894531 C 242.980469 299.808594 241.089844 300.675781 239.175781 301.492188 C 237.265625 302.3125 235.332031 303.082031 233.382812 303.804688 C 231.429688 304.527344 229.460938 305.203125 227.476562 305.824219 C 225.492188 306.449219 223.492188 307.023438 221.480469 307.546875 C 219.464844 308.074219 217.441406 308.546875 215.402344 308.96875 C 213.367188 309.390625 211.320312 309.765625 209.261719 310.085938 C 207.207031 310.40625 205.144531 310.675781 203.074219 310.894531 C 201.007812 311.113281 198.933594 311.277344 196.855469 311.390625 C 194.777344 311.507812 192.699219 311.570312 190.617188 311.578125 C 188.539062 311.589844 186.457031 311.546875 184.378906 311.453125 C 182.300781 311.359375 180.226562 311.214844 178.152344 311.019531 C 176.082031 310.820312 174.015625 310.574219 171.957031 310.273438 C 169.898438 309.972656 167.847656 309.621094 165.808594 309.21875 C 163.765625 308.816406 161.738281 308.363281 159.71875 307.859375 C 157.699219 307.351562 155.695312 306.800781 153.703125 306.195312 C 151.710938 305.589844 149.738281 304.9375 147.777344 304.234375 C 145.820312 303.53125 143.882812 302.78125 141.960938 301.980469 C 140.039062 301.179688 138.140625 300.332031 136.261719 299.4375 C 134.382812 298.542969 132.527344 297.601562 130.695312 296.617188 C 128.863281 295.628906 127.058594 294.59375 125.277344 293.519531 C 123.5 292.441406 121.746094 291.320312 120.023438 290.152344 C 118.300781 288.988281 116.605469 287.78125 114.941406 286.53125 C 113.277344 285.28125 111.648438 283.992188 110.046875 282.660156 C 108.449219 281.328125 106.882812 279.957031 105.351562 278.550781 C 103.820312 277.140625 102.328125 275.695312 100.867188 274.210938 C 99.410156 272.726562 97.988281 271.207031 96.609375 269.652344 C 95.226562 268.097656 93.882812 266.507812 92.578125 264.886719 C 91.277344 263.261719 90.015625 261.609375 88.792969 259.925781 C 87.574219 258.238281 86.394531 256.523438 85.261719 254.78125 C 84.125 253.035156 83.035156 251.265625 81.988281 249.46875 C 80.941406 247.667969 79.941406 245.84375 78.984375 243.996094 C 78.03125 242.148438 77.121094 240.277344 76.257812 238.382812 C 75.398438 236.488281 74.582031 234.574219 73.816406 232.640625 C 73.050781 230.707031 72.332031 228.753906 71.664062 226.785156 C 70.996094 224.8125 70.378906 222.828125 69.808594 220.828125 C 69.238281 218.824219 68.71875 216.8125 68.25 214.785156 C 67.78125 212.757812 67.363281 210.71875 66.996094 208.671875 C 66.628906 206.621094 66.3125 204.566406 66.046875 202.503906 C 65.785156 200.4375 65.570312 198.371094 65.410156 196.296875 C 65.25 194.222656 65.140625 192.144531 65.082031 190.0625 C 65.027344 187.984375 65.019531 185.902344 65.066406 183.824219 C 65.113281 181.742188 65.210938 179.664062 65.363281 177.589844 C 65.511719 175.515625 65.714844 173.445312 65.96875 171.378906 C 66.222656 169.316406 66.527344 167.257812 66.882812 165.207031 C 67.242188 163.15625 67.648438 161.117188 68.105469 159.089844 C 68.566406 157.058594 69.074219 155.042969 69.632812 153.039062 C 70.191406 151.035156 70.800781 149.042969 71.460938 147.070312 C 72.121094 145.097656 72.828125 143.140625 73.582031 141.203125 C 74.339844 139.265625 75.144531 137.347656 75.996094 135.449219 C 76.847656 133.550781 77.746094 131.671875 78.691406 129.820312 C 79.640625 127.96875 80.628906 126.136719 81.667969 124.335938 C 82.703125 122.53125 83.785156 120.753906 84.914062 119.003906 C 86.039062 117.253906 87.207031 115.535156 88.417969 113.84375 C 89.632812 112.152344 90.882812 110.492188 92.179688 108.863281 C 93.472656 107.234375 94.808594 105.640625 96.183594 104.078125 C 97.558594 102.515625 98.96875 100.988281 100.421875 99.496094 C 101.871094 98.003906 103.359375 96.550781 104.882812 95.132812 C 106.40625 93.714844 107.964844 92.335938 109.554688 91 C 111.148438 89.660156 112.773438 88.359375 114.429688 87.101562 C 116.089844 85.84375 117.777344 84.628906 119.492188 83.453125 C 121.210938 82.28125 122.957031 81.148438 124.730469 80.0625 C 126.507812 78.976562 128.308594 77.933594 130.132812 76.9375 C 131.960938 75.941406 133.808594 74.992188 135.683594 74.085938 C 137.558594 73.183594 139.453125 72.324219 141.371094 71.515625 C 144.367188 70.25 147.414062 69.105469 150.5 68.078125 C 153.589844 67.050781 156.710938 66.144531 159.871094 65.359375 C 163.03125 64.578125 166.214844 63.917969 169.425781 63.382812 C 172.636719 62.847656 175.863281 62.4375 179.105469 62.15625 C 182.347656 61.875 185.597656 61.71875 188.851562 61.6875 C 192.105469 61.660156 195.355469 61.757812 198.605469 61.980469 C 201.851562 62.207031 205.085938 62.558594 208.304688 63.035156 C 211.523438 63.511719 214.71875 64.113281 217.890625 64.84375 C 221.066406 65.570312 224.203125 66.417969 227.308594 67.390625 C 230.417969 68.363281 233.480469 69.453125 236.5 70.667969 C 239.523438 71.878906 242.492188 73.203125 245.410156 74.648438 C 248.324219 76.089844 251.183594 77.644531 253.976562 79.3125 C 256.773438 80.980469 259.5 82.753906 262.15625 84.632812 C 264.816406 86.511719 267.394531 88.492188 269.898438 90.570312 C 272.402344 92.652344 274.820312 94.828125 277.152344 97.097656 C 279.484375 99.367188 281.726562 101.722656 283.875 104.167969 C 284.417969 104.804688 284.929688 105.460938 285.40625 106.144531 C 285.886719 106.828125 286.332031 107.535156 286.742188 108.261719 C 287.152344 108.988281 287.523438 109.734375 287.863281 110.496094 C 288.199219 111.261719 288.5 112.039062 288.761719 112.832031 C 289.023438 113.625 289.246094 114.425781 289.429688 115.242188 C 289.613281 116.054688 289.753906 116.878906 289.859375 117.707031 C 289.960938 118.535156 290.023438 119.367188 290.046875 120.199219 C 290.070312 121.035156 290.050781 121.867188 289.992188 122.699219 C 289.933594 123.53125 289.832031 124.359375 289.695312 125.183594 C 289.554688 126.007812 289.375 126.820312 289.15625 127.625 C 288.9375 128.433594 288.679688 129.226562 288.382812 130.003906 C 288.085938 130.785156 287.753906 131.550781 287.382812 132.296875 C 287.011719 133.046875 286.605469 133.773438 286.164062 134.480469 C 285.722656 135.191406 285.246094 135.875 284.738281 136.539062 C 284.230469 137.199219 283.691406 137.835938 283.121094 138.445312 C 282.550781 139.054688 281.953125 139.632812 281.324219 140.183594 C 280.699219 140.734375 280.046875 141.253906 279.367188 141.742188 C 278.691406 142.230469 277.992188 142.683594 277.269531 143.101562 C 276.546875 143.523438 275.804688 143.90625 275.046875 144.253906 C 274.289062 144.597656 273.515625 144.910156 272.722656 145.179688 C 271.933594 145.453125 271.132812 145.683594 270.324219 145.878906 C 269.511719 146.070312 268.691406 146.226562 267.863281 146.339844 C 267.039062 146.453125 266.207031 146.527344 265.371094 146.558594 C 264.539062 146.59375 263.703125 146.585938 262.871094 146.535156 C 262.039062 146.488281 261.210938 146.398438 260.382812 146.269531 C 259.558594 146.140625 258.742188 145.96875 257.933594 145.761719 C 257.128906 145.554688 256.332031 145.304688 255.546875 145.019531 C 254.761719 144.730469 253.996094 144.410156 253.242188 144.046875 C 252.488281 143.6875 251.757812 143.289062 251.042969 142.855469 C 250.328125 142.421875 249.636719 141.957031 248.96875 141.457031 C 248.300781 140.957031 247.660156 140.425781 247.042969 139.863281 C 246.425781 139.300781 245.839844 138.707031 245.28125 138.089844 C 244.457031 137.152344 243.609375 136.234375 242.738281 135.339844 C 241.871094 134.445312 240.976562 133.574219 240.0625 132.726562 C 239.148438 131.875 238.214844 131.050781 237.257812 130.25 C 236.300781 129.449219 235.324219 128.671875 234.328125 127.917969 C 233.332031 127.167969 232.316406 126.441406 231.285156 125.742188 C 230.253906 125.042969 229.203125 124.367188 228.136719 123.722656 C 227.066406 123.074219 225.984375 122.457031 224.886719 121.863281 C 223.789062 121.273438 222.675781 120.710938 221.546875 120.175781 C 220.421875 119.640625 219.28125 119.132812 218.125 118.65625 C 216.972656 118.179688 215.808594 117.734375 214.632812 117.316406 C 213.457031 116.898438 212.273438 116.511719 211.078125 116.152344 C 209.878906 115.796875 208.675781 115.46875 207.464844 115.171875 C 206.253906 114.875 205.035156 114.613281 203.808594 114.378906 C 202.582031 114.144531 201.351562 113.941406 200.117188 113.769531 C 198.878906 113.597656 197.640625 113.460938 196.398438 113.351562 C 195.152344 113.242188 193.910156 113.164062 192.660156 113.121094 C 191.414062 113.078125 190.167969 113.0625 188.917969 113.082031 C 187.671875 113.101562 186.425781 113.152344 185.179688 113.234375 C 183.9375 113.316406 182.695312 113.429688 181.453125 113.574219 C 180.214844 113.71875 178.980469 113.894531 177.75 114.105469 C 176.519531 114.3125 175.296875 114.550781 174.078125 114.820312 C 172.859375 115.09375 171.648438 115.394531 170.445312 115.726562 C 169.242188 116.058594 168.050781 116.421875 166.863281 116.8125 C 165.679688 117.207031 164.507812 117.628906 163.34375 118.082031 C 162.179688 118.535156 161.03125 119.015625 159.890625 119.527344 C 158.753906 120.039062 157.628906 120.578125 156.519531 121.144531 C 155.40625 121.714844 154.3125 122.308594 153.230469 122.933594 C 152.152344 123.558594 151.085938 124.210938 150.039062 124.886719 C 148.992188 125.566406 147.964844 126.269531 146.953125 127 C 145.941406 127.730469 144.949219 128.488281 143.976562 129.269531 C 143 130.050781 142.050781 130.855469 141.117188 131.683594 C 140.183594 132.515625 139.273438 133.367188 138.386719 134.242188 C 137.496094 135.117188 136.632812 136.015625 135.789062 136.9375 C 134.945312 137.855469 134.125 138.796875 133.332031 139.757812 C 132.535156 140.722656 131.765625 141.703125 131.019531 142.703125 C 130.277344 143.703125 129.558594 144.722656 128.863281 145.761719 C 128.171875 146.796875 127.503906 147.851562 126.863281 148.925781 C 126.226562 149.996094 125.613281 151.082031 125.027344 152.183594 C 124.445312 153.289062 123.890625 154.40625 123.363281 155.535156 C 122.835938 156.667969 122.335938 157.808594 121.867188 158.964844 C 121.398438 160.121094 120.957031 161.289062 120.546875 162.46875 C 120.136719 163.648438 119.757812 164.835938 119.410156 166.03125 C 119.058594 167.230469 118.742188 168.4375 118.453125 169.652344 C 118.164062 170.863281 117.910156 172.085938 117.683594 173.3125 C 117.457031 174.539062 117.261719 175.773438 117.101562 177.007812 C 116.9375 178.246094 116.804688 179.488281 116.703125 180.730469 C 116.605469 181.972656 116.535156 183.21875 116.5 184.46875 C 116.464844 185.714844 116.457031 186.960938 116.484375 188.210938 C 116.511719 189.457031 116.570312 190.703125 116.660156 191.945312 C 116.75 193.191406 116.875 194.433594 117.027344 195.671875 C 117.179688 196.910156 117.367188 198.144531 117.582031 199.371094 C 117.796875 200.601562 118.046875 201.824219 118.324219 203.039062 C 118.601562 204.257812 118.914062 205.464844 119.253906 206.664062 C 119.59375 207.867188 119.960938 209.058594 120.363281 210.238281 C 120.765625 211.421875 121.195312 212.589844 121.65625 213.75 C 122.113281 214.910156 122.605469 216.058594 123.121094 217.191406 C 123.640625 218.328125 124.1875 219.449219 124.765625 220.554688 C 125.339844 221.664062 125.945312 222.753906 126.574219 223.832031 C 127.207031 224.90625 127.863281 225.96875 128.550781 227.007812 C 129.234375 228.050781 129.945312 229.078125 130.683594 230.082031 C 131.421875 231.089844 132.183594 232.078125 132.96875 233.046875 C 133.757812 234.011719 134.570312 234.960938 135.40625 235.886719 C 136.242188 236.8125 137.101562 237.71875 137.980469 238.601562 C 138.863281 239.484375 139.769531 240.34375 140.691406 241.179688 C 141.617188 242.015625 142.566406 242.828125 143.53125 243.617188 C 144.5 244.40625 145.484375 245.171875 146.492188 245.910156 C 147.496094 246.648438 148.519531 247.359375 149.5625 248.046875 C 150.605469 248.734375 151.664062 249.390625 152.738281 250.023438 C 153.816406 250.65625 154.90625 251.261719 156.011719 251.839844 C 157.121094 252.414062 158.238281 252.964844 159.375 253.484375 C 160.507812 254.003906 161.65625 254.496094 162.8125 254.957031 C 163.972656 255.417969 165.144531 255.847656 166.324219 256.25 C 167.507812 256.652344 168.695312 257.023438 169.898438 257.367188 C 171.097656 257.707031 172.304688 258.019531 173.523438 258.296875 C 174.738281 258.578125 175.960938 258.828125 177.1875 259.042969 C 178.417969 259.261719 179.652344 259.449219 180.890625 259.601562 C 182.128906 259.757812 183.367188 259.882812 184.613281 259.972656 C 185.855469 260.066406 187.101562 260.125 188.351562 260.152344 C 189.597656 260.179688 190.84375 260.175781 192.09375 260.140625 C 193.339844 260.105469 194.585938 260.039062 195.828125 259.941406 C 197.074219 259.84375 198.3125 259.714844 199.550781 259.550781 C 200.789062 259.390625 202.019531 259.195312 203.25 258.972656 C 204.476562 258.746094 205.695312 258.492188 206.910156 258.207031 C 208.125 257.917969 209.332031 257.601562 210.53125 257.253906 C 211.726562 256.90625 212.917969 256.527344 214.097656 256.117188 C 215.273438 255.710938 216.441406 255.273438 217.597656 254.804688 C 218.757812 254.335938 219.902344 253.839844 221.03125 253.3125 C 222.164062 252.785156 223.28125 252.230469 224.382812 251.648438 C 225.488281 251.066406 226.574219 250.457031 227.648438 249.816406 C 228.71875 249.179688 229.773438 248.511719 230.8125 247.820312 C 231.851562 247.128906 232.871094 246.410156 233.871094 245.667969 C 234.875 244.921875 235.855469 244.152344 236.820312 243.359375 C 237.78125 242.566406 238.722656 241.746094 239.644531 240.90625 C 240.566406 240.0625 241.464844 239.199219 242.339844 238.3125 C 243.21875 237.425781 244.070312 236.515625 244.902344 235.582031 C 245.734375 234.652344 246.539062 233.699219 247.320312 232.726562 C 247.847656 232.074219 248.40625 231.445312 248.996094 230.84375 C 249.585938 230.242188 250.203125 229.671875 250.851562 229.132812 C 251.496094 228.59375 252.164062 228.085938 252.859375 227.609375 C 253.554688 227.136719 254.273438 226.699219 255.011719 226.292969 C 255.75 225.890625 256.507812 225.523438 257.28125 225.195312 C 258.054688 224.867188 258.84375 224.574219 259.648438 224.324219 C 260.453125 224.070312 261.265625 223.859375 262.089844 223.6875 C 262.914062 223.515625 263.742188 223.386719 264.578125 223.292969 C 265.417969 223.203125 266.257812 223.15625 267.097656 223.148438 C 267.9375 223.140625 268.777344 223.175781 269.617188 223.25 C 270.457031 223.324219 271.289062 223.4375 272.117188 223.597656 C 272.941406 223.753906 273.757812 223.949219 274.566406 224.1875 C 275.375 224.425781 276.167969 224.699219 276.949219 225.015625 C 277.730469 225.332031 278.492188 225.683594 279.238281 226.074219 C 279.984375 226.464844 280.710938 226.890625 281.414062 227.351562 C 282.117188 227.8125 282.796875 228.304688 283.453125 228.835938 C 284.109375 229.363281 284.734375 229.921875 285.335938 230.511719 C 285.9375 231.101562 286.507812 231.71875 287.046875 232.367188 C 287.585938 233.011719 288.09375 233.683594 288.566406 234.378906 C 289.039062 235.074219 289.476562 235.789062 289.882812 236.53125 C 290.285156 237.269531 290.648438 238.023438 290.980469 238.800781 C 291.308594 239.574219 291.597656 240.363281 291.847656 241.167969 C 292.101562 241.96875 292.3125 242.785156 292.484375 243.609375 C 292.652344 244.433594 292.785156 245.261719 292.875 246.101562 C 292.964844 246.9375 293.011719 247.777344 293.019531 248.617188 C 293.027344 249.460938 292.992188 250.300781 292.917969 251.136719 C 292.839844 251.976562 292.726562 252.808594 292.566406 253.636719 C 292.410156 254.460938 292.210938 255.277344 291.976562 256.085938 C 291.738281 256.894531 291.460938 257.6875 291.144531 258.46875 C 290.828125 259.25 290.476562 260.011719 290.085938 260.757812 C 289.695312 261.503906 289.269531 262.226562 288.808594 262.929688 C 288.34375 263.632812 287.851562 264.3125 287.320312 264.96875 Z M 219.425781 186.617188 C 219.425781 187.574219 219.378906 188.53125 219.285156 189.484375 C 219.191406 190.4375 219.050781 191.382812 218.863281 192.320312 C 218.675781 193.261719 218.441406 194.1875 218.164062 195.105469 C 217.886719 196.019531 217.566406 196.921875 217.199219 197.804688 C 216.832031 198.691406 216.421875 199.554688 215.972656 200.398438 C 215.519531 201.246094 215.027344 202.066406 214.496094 202.859375 C 213.964844 203.65625 213.394531 204.425781 212.789062 205.164062 C 212.179688 205.90625 211.539062 206.613281 210.859375 207.289062 C 210.183594 207.96875 209.476562 208.609375 208.734375 209.21875 C 207.996094 209.824219 207.226562 210.394531 206.429688 210.925781 C 205.632812 211.457031 204.8125 211.949219 203.96875 212.402344 C 203.125 212.851562 202.261719 213.261719 201.375 213.628906 C 200.492188 213.996094 199.589844 214.316406 198.675781 214.59375 C 197.757812 214.875 196.832031 215.105469 195.890625 215.292969 C 194.953125 215.480469 194.007812 215.621094 193.054688 215.714844 C 192.101562 215.808594 191.144531 215.855469 190.1875 215.855469 C 189.230469 215.855469 188.273438 215.808594 187.324219 215.714844 C 186.371094 215.621094 185.421875 215.480469 184.484375 215.292969 C 183.546875 215.105469 182.617188 214.875 181.703125 214.59375 C 180.785156 214.316406 179.882812 213.996094 179 213.628906 C 178.113281 213.261719 177.25 212.851562 176.40625 212.402344 C 175.5625 211.949219 174.742188 211.457031 173.945312 210.925781 C 173.148438 210.394531 172.382812 209.824219 171.640625 209.21875 C 170.902344 208.609375 170.191406 207.96875 169.515625 207.289062 C 168.835938 206.613281 168.195312 205.90625 167.589844 205.164062 C 166.980469 204.425781 166.410156 203.65625 165.878906 202.859375 C 165.347656 202.066406 164.855469 201.246094 164.402344 200.398438 C 163.953125 199.554688 163.542969 198.691406 163.175781 197.804688 C 162.8125 196.921875 162.488281 196.019531 162.210938 195.105469 C 161.933594 194.1875 161.699219 193.261719 161.511719 192.320312 C 161.328125 191.382812 161.1875 190.4375 161.09375 189.484375 C 161 188.53125 160.953125 187.574219 160.953125 186.617188 C 160.953125 185.660156 161 184.707031 161.09375 183.753906 C 161.1875 182.800781 161.328125 181.851562 161.511719 180.914062 C 161.699219 179.976562 161.933594 179.046875 162.210938 178.132812 C 162.488281 177.214844 162.8125 176.3125 163.175781 175.429688 C 163.542969 174.546875 163.953125 173.679688 164.402344 172.835938 C 164.855469 171.992188 165.347656 171.171875 165.878906 170.375 C 166.410156 169.578125 166.980469 168.8125 167.589844 168.070312 C 168.195312 167.332031 168.835938 166.621094 169.515625 165.945312 C 170.191406 165.269531 170.902344 164.625 171.640625 164.019531 C 172.382812 163.410156 173.148438 162.839844 173.945312 162.308594 C 174.742188 161.777344 175.5625 161.285156 176.40625 160.832031 C 177.25 160.382812 178.113281 159.972656 179 159.605469 C 179.882812 159.242188 180.785156 158.917969 181.703125 158.640625 C 182.617188 158.363281 183.546875 158.128906 184.484375 157.945312 C 185.421875 157.757812 186.371094 157.617188 187.324219 157.523438 C 188.273438 157.429688 189.230469 157.382812 190.1875 157.382812 C 191.144531 157.382812 192.101562 157.429688 193.054688 157.523438 C 194.007812 157.617188 194.953125 157.757812 195.890625 157.945312 C 196.832031 158.128906 197.757812 158.363281 198.675781 158.640625 C 199.589844 158.917969 200.492188 159.242188 201.375 159.605469 C 202.261719 159.972656 203.125 160.382812 203.96875 160.832031 C 204.8125 161.285156 205.632812 161.777344 206.429688 162.308594 C 207.226562 162.839844 207.996094 163.410156 208.734375 164.019531 C 209.476562 164.625 210.183594 165.269531 210.859375 165.945312 C 211.539062 166.621094 212.179688 167.332031 212.789062 168.070312 C 213.394531 168.8125 213.964844 169.578125 214.496094 170.375 C 215.027344 171.171875 215.519531 171.992188 215.972656 172.835938 C 216.421875 173.679688 216.832031 174.546875 217.199219 175.429688 C 217.566406 176.3125 217.886719 177.214844 218.164062 178.132812 C 218.441406 179.046875 218.675781 179.976562 218.863281 180.914062 C 219.050781 181.851562 219.191406 182.800781 219.285156 183.753906 C 219.378906 184.707031 219.425781 185.660156 219.425781 186.617188 Z M 219.425781 186.617188 " fill-opacity="1" fill-rule="nonzero"/></g></g></svg>
